# xmcd
#
# Track frame offsets: 
#        150
#        16172
#        30735
#        44787
#        76552
#        90350
#        118345
#        141375
#        166062
#
# Disc length: 2440 seconds
#
# Revision: 6
# Processed by: cddbd v1.5.2PL0 Copyright (c) Steve Scherf et al.
# Submitted via: ExactAudioCopy v0.99pb5
#
DISCID=69098609
DTITLE=Pino Daniele - Sciò - Live [CD2]
DYEAR=1984
DGENRE=Blues
TTITLE0=Terra Mia
TTITLE1=Lazzari Felici
TTITLE2=Ce Sta Chi Ce Penza
TTITLE3=Suite (Appocundria, Putesse Essere Allero, Je Sto Vicino A Te)
TTITLE4=Quanno Chiove
TTITLE5=Musica Musica
TTITLE6=Yes I Know My Way
TTITLE7=Mo Basta (Parte 2)
TTITLE8=Napule E`
EXTD=YEAR: 1984 ID3G:   0
EXTT0=
EXTT1=
EXTT2=
EXTT3=
EXTT4=
EXTT5=
EXTT6=
EXTT7=
EXTT8=
PLAYORDER=
